# xmcd
#
# Track frame offsets:
#	150
#	12895
#	40501
#	53467
#	71193
#	96429
#	123469
#	137859
#	151654
#	169430
#	215200
#	238331
#	253245
#	279345
#	294510
#	321699
#	340267
#
# Disc length: 4800 seconds
#
# Revision: 4
# Processed by: cddbd v1.5.2PL0 Copyright (c) Steve Scherf et al.
# Submitted via: EZCDAudioConverter 6.0.0.1
#
DISCID=0d12be11
DTITLE=Various Artist - Akella Presents - Rockin' Blues - vol.18  CD2  New!
DYEAR=2013
DGENRE=Blues
TTITLE0=COLD BLUE STEEL - The Girl That Radiates
TTITLE1=RED BEANS and RICE - The Dark Side
TTITLE2=The DUSTERS - Don't You Lie to Me
TTITLE3=CHRIS MICHIE - Sweet Disposition
TTITLE4=PAT RAMSEY - King of Fools
TTITLE5=STAN WEBB - The House That Love Live In
TTITLE6=SCOTT KEETON - Roll And Tumble Blues
TTITLE7=The POUNDERS - Shakin' That Thang
TTITLE8=JOHNNY WINTER - I Smell Smoke
TTITLE9=RICK DERRINGER - All I Want to Do Is Cry
TTITLE10=JAY STULO - There's Something Going On
TTITLE11=MICROWAVE DAVE and The NUKES - Cadillac Ride
TTITLE12=JIM SUHLER and MONKEY BEAT - Every Dog Has His Day
TTITLE13=SLOLEAK - I Cry For You
TTITLE14=SMOKEHOUSE - Cadillac in the Swamp
TTITLE15=BO WILSON BAND - Chevrolet
TTITLE16=WILD T and The SPIRIT - Yvonne
EXTD=
EXTT0=
EXTT1=
EXTT2=
EXTT3=
EXTT4=
EXTT5=
EXTT6=
EXTT7=
EXTT8=
EXTT9=
EXTT10=
EXTT11=
EXTT12=
EXTT13=
EXTT14=
EXTT15=
EXTT16=
PLAYORDER=
